<mxfile host="65bd71144e">
    <diagram id="CoPoqe06Ibnr8FvvBXtd" name="Page-1">
        <mxGraphModel dx="1432" dy="862" grid="1" gridSize="10" guides="1" tooltips="1" connect="1" arrows="1" fold="1" page="1" pageScale="1" pageWidth="850" pageHeight="1100" math="0" shadow="0">
            <root>
                <mxCell id="0"/>
                <mxCell id="1" parent="0"/>
                <mxCell id="9UH-EuRd5qsGiVWYlS69-35" value="" style="rounded=0;whiteSpace=wrap;html=1;labelBorderColor=none;fillColor=none;" parent="1" vertex="1">
                    <mxGeometry x="-120" y="270" width="1180" height="550" as="geometry"/>
                </mxCell>
                <mxCell id="9UH-EuRd5qsGiVWYlS69-20" value="" style="rounded=0;whiteSpace=wrap;html=1;fillColor=none;" parent="1" vertex="1">
                    <mxGeometry x="500" y="410" width="450" height="300" as="geometry"/>
                </mxCell>
                <mxCell id="9UH-EuRd5qsGiVWYlS69-6" value="" style="rounded=0;whiteSpace=wrap;html=1;fillColor=none;" parent="1" vertex="1">
                    <mxGeometry x="-40" y="410" width="470" height="300" as="geometry"/>
                </mxCell>
                <mxCell id="9UH-EuRd5qsGiVWYlS69-8" style="edgeStyle=orthogonalEdgeStyle;rounded=0;orthogonalLoop=1;jettySize=auto;html=1;exitX=1;exitY=0.5;exitDx=0;exitDy=0;entryX=0;entryY=0.5;entryDx=0;entryDy=0;" parent="1" source="9UH-EuRd5qsGiVWYlS69-1" target="9UH-EuRd5qsGiVWYlS69-7" edge="1">
                    <mxGeometry relative="1" as="geometry"/>
                </mxCell>
                <mxCell id="9UH-EuRd5qsGiVWYlS69-1" value="Jenkins" style="shape=image;verticalLabelPosition=bottom;labelBackgroundColor=default;verticalAlign=top;aspect=fixed;imageAspect=0;image=https://upload.wikimedia.org/wikipedia/commons/thumb/e/e9/Jenkins_logo.svg/1200px-Jenkins_logo.svg.png;" parent="1" vertex="1">
                    <mxGeometry y="440.69" width="64.25" height="88.62" as="geometry"/>
                </mxCell>
                <mxCell id="9UH-EuRd5qsGiVWYlS69-3" style="edgeStyle=orthogonalEdgeStyle;rounded=0;orthogonalLoop=1;jettySize=auto;html=1;exitX=1;exitY=0.5;exitDx=0;exitDy=0;entryX=0;entryY=0.5;entryDx=0;entryDy=0;" parent="1" source="9UH-EuRd5qsGiVWYlS69-2" target="9UH-EuRd5qsGiVWYlS69-1" edge="1">
                    <mxGeometry relative="1" as="geometry"/>
                </mxCell>
                <mxCell id="9UH-EuRd5qsGiVWYlS69-34" value="Webhook" style="edgeLabel;html=1;align=center;verticalAlign=middle;resizable=0;points=[];" parent="9UH-EuRd5qsGiVWYlS69-3" vertex="1" connectable="0">
                    <mxGeometry x="-0.2741" y="-1" relative="1" as="geometry">
                        <mxPoint x="-33" y="14" as="offset"/>
                    </mxGeometry>
                </mxCell>
                <mxCell id="9UH-EuRd5qsGiVWYlS69-2" value="Github" style="shape=image;verticalLabelPosition=bottom;labelBackgroundColor=default;verticalAlign=top;aspect=fixed;imageAspect=0;image=https://upload.wikimedia.org/wikipedia/commons/thumb/9/91/Octicons-mark-github.svg/2048px-Octicons-mark-github.svg.png;" parent="1" vertex="1">
                    <mxGeometry x="-338" y="445" width="80" height="80" as="geometry"/>
                </mxCell>
                <mxCell id="9UH-EuRd5qsGiVWYlS69-5" style="edgeStyle=orthogonalEdgeStyle;rounded=0;orthogonalLoop=1;jettySize=auto;html=1;exitX=0.5;exitY=0.5;exitDx=0;exitDy=0;exitPerimeter=0;entryX=0;entryY=0.5;entryDx=0;entryDy=0;" parent="1" source="9UH-EuRd5qsGiVWYlS69-4" target="9UH-EuRd5qsGiVWYlS69-2" edge="1">
                    <mxGeometry relative="1" as="geometry"/>
                </mxCell>
                <mxCell id="9UH-EuRd5qsGiVWYlS69-4" value="Developers" style="shape=umlActor;verticalLabelPosition=bottom;verticalAlign=top;html=1;outlineConnect=0;" parent="1" vertex="1">
                    <mxGeometry x="-510" y="455" width="30" height="60" as="geometry"/>
                </mxCell>
                <mxCell id="9UH-EuRd5qsGiVWYlS69-10" value="" style="edgeStyle=orthogonalEdgeStyle;rounded=0;orthogonalLoop=1;jettySize=auto;html=1;" parent="1" source="9UH-EuRd5qsGiVWYlS69-7" target="9UH-EuRd5qsGiVWYlS69-9" edge="1">
                    <mxGeometry relative="1" as="geometry"/>
                </mxCell>
                <mxCell id="9UH-EuRd5qsGiVWYlS69-7" value="Build Docker Image" style="rounded=1;whiteSpace=wrap;html=1;fillColor=none;" parent="1" vertex="1">
                    <mxGeometry x="130" y="462.5" width="100" height="45" as="geometry"/>
                </mxCell>
                <mxCell id="9UH-EuRd5qsGiVWYlS69-12" value="" style="edgeStyle=orthogonalEdgeStyle;rounded=0;orthogonalLoop=1;jettySize=auto;html=1;" parent="1" source="9UH-EuRd5qsGiVWYlS69-9" target="9UH-EuRd5qsGiVWYlS69-11" edge="1">
                    <mxGeometry relative="1" as="geometry"/>
                </mxCell>
                <mxCell id="9UH-EuRd5qsGiVWYlS69-9" value="Push Docker Image" style="rounded=1;whiteSpace=wrap;html=1;fillColor=none;" parent="1" vertex="1">
                    <mxGeometry x="130" y="550" width="100" height="45" as="geometry"/>
                </mxCell>
                <mxCell id="9UH-EuRd5qsGiVWYlS69-14" style="edgeStyle=orthogonalEdgeStyle;rounded=0;orthogonalLoop=1;jettySize=auto;html=1;exitX=1;exitY=0.5;exitDx=0;exitDy=0;entryX=0.5;entryY=1;entryDx=0;entryDy=0;" parent="1" source="9UH-EuRd5qsGiVWYlS69-11" target="9UH-EuRd5qsGiVWYlS69-13" edge="1">
                    <mxGeometry relative="1" as="geometry"/>
                </mxCell>
                <mxCell id="9UH-EuRd5qsGiVWYlS69-15" value="No vulnerability found" style="edgeLabel;html=1;align=center;verticalAlign=middle;resizable=0;points=[];" parent="9UH-EuRd5qsGiVWYlS69-14" vertex="1" connectable="0">
                    <mxGeometry x="0.1359" relative="1" as="geometry">
                        <mxPoint x="-5" y="13" as="offset"/>
                    </mxGeometry>
                </mxCell>
                <mxCell id="9UH-EuRd5qsGiVWYlS69-11" value="Scan Docker Image" style="rounded=1;whiteSpace=wrap;html=1;fillColor=none;" parent="1" vertex="1">
                    <mxGeometry x="130" y="630" width="100" height="45" as="geometry"/>
                </mxCell>
                <mxCell id="9UH-EuRd5qsGiVWYlS69-19" style="edgeStyle=orthogonalEdgeStyle;rounded=0;orthogonalLoop=1;jettySize=auto;html=1;exitX=1;exitY=0.5;exitDx=0;exitDy=0;entryX=0;entryY=0.5;entryDx=0;entryDy=0;" parent="1" source="9UH-EuRd5qsGiVWYlS69-13" target="9UH-EuRd5qsGiVWYlS69-18" edge="1">
                    <mxGeometry relative="1" as="geometry"/>
                </mxCell>
                <mxCell id="9UH-EuRd5qsGiVWYlS69-40" style="edgeStyle=orthogonalEdgeStyle;rounded=0;orthogonalLoop=1;jettySize=auto;html=1;exitX=0.5;exitY=0;exitDx=0;exitDy=0;entryX=0.5;entryY=1;entryDx=0;entryDy=0;" parent="1" source="9UH-EuRd5qsGiVWYlS69-13" target="9UH-EuRd5qsGiVWYlS69-39" edge="1">
                    <mxGeometry relative="1" as="geometry"/>
                </mxCell>
                <mxCell id="9UH-EuRd5qsGiVWYlS69-13" value="Deploy" style="rounded=1;whiteSpace=wrap;html=1;fillColor=none;" parent="1" vertex="1">
                    <mxGeometry x="290" y="550" width="100" height="45" as="geometry"/>
                </mxCell>
                <mxCell id="9UH-EuRd5qsGiVWYlS69-16" value="Azure Kubernetes Service" style="aspect=fixed;html=1;points=[];align=center;image;fontSize=12;image=img/lib/azure2/containers/Kubernetes_Services.svg;fillColor=none;" parent="1" vertex="1">
                    <mxGeometry x="-60" y="300" width="68" height="60" as="geometry"/>
                </mxCell>
                <mxCell id="9UH-EuRd5qsGiVWYlS69-17" value="Jenkins namespace" style="text;html=1;align=center;verticalAlign=middle;resizable=0;points=[];autosize=1;strokeColor=none;fillColor=none;" parent="1" vertex="1">
                    <mxGeometry x="-40" y="710" width="130" height="30" as="geometry"/>
                </mxCell>
                <mxCell id="9UH-EuRd5qsGiVWYlS69-24" style="edgeStyle=orthogonalEdgeStyle;rounded=0;orthogonalLoop=1;jettySize=auto;html=1;exitX=1;exitY=0.5;exitDx=0;exitDy=0;entryX=0;entryY=0.5;entryDx=0;entryDy=0;" parent="1" source="9UH-EuRd5qsGiVWYlS69-18" target="9UH-EuRd5qsGiVWYlS69-22" edge="1">
                    <mxGeometry relative="1" as="geometry"/>
                </mxCell>
                <mxCell id="9UH-EuRd5qsGiVWYlS69-18" value="Deployment" style="rounded=1;whiteSpace=wrap;html=1;fillColor=none;" parent="1" vertex="1">
                    <mxGeometry x="530" y="462.5" width="95" height="45" as="geometry"/>
                </mxCell>
                <mxCell id="9UH-EuRd5qsGiVWYlS69-21" value="Nginx namespace" style="text;html=1;align=center;verticalAlign=middle;resizable=0;points=[];autosize=1;strokeColor=none;fillColor=none;rounded=0;" parent="1" vertex="1">
                    <mxGeometry x="500" y="710" width="120" height="30" as="geometry"/>
                </mxCell>
                <mxCell id="9UH-EuRd5qsGiVWYlS69-25" style="edgeStyle=orthogonalEdgeStyle;rounded=0;orthogonalLoop=1;jettySize=auto;html=1;exitX=1;exitY=0.5;exitDx=0;exitDy=0;entryX=0;entryY=0.5;entryDx=0;entryDy=0;" parent="1" source="9UH-EuRd5qsGiVWYlS69-22" target="9UH-EuRd5qsGiVWYlS69-23" edge="1">
                    <mxGeometry relative="1" as="geometry"/>
                </mxCell>
                <mxCell id="9UH-EuRd5qsGiVWYlS69-22" value="Service" style="rounded=1;whiteSpace=wrap;html=1;fillColor=none;" parent="1" vertex="1">
                    <mxGeometry x="680" y="461" width="100" height="47.5" as="geometry"/>
                </mxCell>
                <mxCell id="9UH-EuRd5qsGiVWYlS69-23" value="Ingress" style="rounded=1;whiteSpace=wrap;html=1;fillColor=none;" parent="1" vertex="1">
                    <mxGeometry x="820" y="461.25" width="100" height="47.5" as="geometry"/>
                </mxCell>
                <mxCell id="9UH-EuRd5qsGiVWYlS69-26" value="" style="shape=image;verticalLabelPosition=bottom;labelBackgroundColor=default;verticalAlign=top;aspect=fixed;imageAspect=0;image=https://aquasecurity.github.io/trivy/dev/imgs/logo.png;" parent="1" vertex="1">
                    <mxGeometry x="70" y="612.04" width="60" height="62.96" as="geometry"/>
                </mxCell>
                <mxCell id="9UH-EuRd5qsGiVWYlS69-27" value="" style="shape=image;verticalLabelPosition=bottom;labelBackgroundColor=default;verticalAlign=top;aspect=fixed;imageAspect=0;image=https://sysadminas.eu/assets/images/post16/ACR.png;" parent="1" vertex="1">
                    <mxGeometry x="200" y="529.31" width="70" height="36.75" as="geometry"/>
                </mxCell>
                <mxCell id="9UH-EuRd5qsGiVWYlS69-31" style="edgeStyle=orthogonalEdgeStyle;rounded=0;orthogonalLoop=1;jettySize=auto;html=1;exitX=0.5;exitY=0.5;exitDx=0;exitDy=0;exitPerimeter=0;entryX=1;entryY=0.5;entryDx=0;entryDy=0;" parent="1" source="9UH-EuRd5qsGiVWYlS69-28" target="9UH-EuRd5qsGiVWYlS69-23" edge="1">
                    <mxGeometry relative="1" as="geometry"/>
                </mxCell>
                <mxCell id="9UH-EuRd5qsGiVWYlS69-32" value="http://nginx.com" style="edgeLabel;html=1;align=center;verticalAlign=middle;resizable=0;points=[];" parent="9UH-EuRd5qsGiVWYlS69-31" vertex="1" connectable="0">
                    <mxGeometry x="0.2337" y="-1" relative="1" as="geometry">
                        <mxPoint x="102" y="-14" as="offset"/>
                    </mxGeometry>
                </mxCell>
                <mxCell id="9UH-EuRd5qsGiVWYlS69-28" value="Users" style="shape=umlActor;verticalLabelPosition=bottom;verticalAlign=top;html=1;outlineConnect=0;rounded=0;fillColor=none;labelBorderColor=none;" parent="1" vertex="1">
                    <mxGeometry x="1240" y="454.75" width="30" height="60" as="geometry"/>
                </mxCell>
                <mxCell id="9UH-EuRd5qsGiVWYlS69-33" value="Pod Security&lt;br&gt;Standard" style="rounded=1;whiteSpace=wrap;html=1;labelBorderColor=none;fillColor=none;" parent="1" vertex="1">
                    <mxGeometry x="530" y="640" width="112.5" height="50" as="geometry"/>
                </mxCell>
                <mxCell id="9UH-EuRd5qsGiVWYlS69-42" style="edgeStyle=orthogonalEdgeStyle;rounded=0;orthogonalLoop=1;jettySize=auto;html=1;exitX=0.5;exitY=0;exitDx=0;exitDy=0;entryX=0.5;entryY=0;entryDx=0;entryDy=0;" parent="1" source="9UH-EuRd5qsGiVWYlS69-39" target="9UH-EuRd5qsGiVWYlS69-22" edge="1">
                    <mxGeometry relative="1" as="geometry">
                        <mxPoint x="460" y="486.4242424242425" as="targetPoint"/>
                    </mxGeometry>
                </mxCell>
                <mxCell id="9UH-EuRd5qsGiVWYlS69-39" value="API Scan" style="rounded=1;whiteSpace=wrap;html=1;fillColor=none;" parent="1" vertex="1">
                    <mxGeometry x="290" y="462.75" width="100" height="45" as="geometry"/>
                </mxCell>
                <mxCell id="9UH-EuRd5qsGiVWYlS69-44" value="" style="shape=image;verticalLabelPosition=bottom;labelBackgroundColor=default;verticalAlign=top;aspect=fixed;imageAspect=0;image=data:image/png,iVBORw0KGgoAAAANSUhEUgAAAQAAAAEACAYAAABccqhmAABam0lEQVR4nOxdB5gV1dl+5+6y9KUKiFSNIi00AY1RY0NDjBpB9Gp01aCx94Ia80ej8bdFo0aN/QaTtaGiMSZiATui2FCC/lEUFLAgfVm2nP+Z2bn3nvKdM2fmzt3CzuuzcmfmnDNnyvee9/tOmRQSJEjQalHa1BVIYERPAAcC2MHfbgPgSQBvNnG9EiRIUEScAeATAMzw9zSA8U1d0QQJEsSDLgD+BqA+wPDlvz8BKGnqyidIkCAa3Fb8Dd+Ywxp/9m9pU19EggQJ7OEAOALAmogGL/+5xLGwqS8qQYIEZrgy/48xGT31d0tTX2CCBAlU7ALgqQJlvu3f2Ka+2AQJEjTI/GkAvi+ywct/a5r6whMkaM0oB3BDIxu9HA/4V1PfhAQJWhvGA7inGDLfcRz24x//OGy+aU19QxIkaA04AsDHxWjNy8vL2XXXXceyeOCBB8LkrwPQualvToIEWyO6AphRLBk/duxYNnv2bM/o6+vrGY999tnHUwSWrsCCpr5RCRJsTdgFwF3FMHrXqKdMmcK+//57FoSQZf+2qW9aggQtHYcDWFIsmX/ttdcGGn0WriJ4++23w56nf1PfwAQJWhpcmX9hsWT+mDFj2BNPPEHKfBucfPLJYc63JJkvkCCBHQYDuLtYhj916lS2ZMmS0AZPoX///mHO/cemvrEJmh+cpq5AM8I0fxruj32Die3edO3aFSeeeCKuvfbauIr08Mknn2CnnXayzzBqyu8xasp6OE4NgCMB1Pi9BXtFOP2H/iAn+Apjif/7s9xfJr06QrkJGhEJAQAXAzgPQI+4Cx43bhxOOukk769Y+NOf/oSzzz7bPsPxDwP1dcrusC8Cs0/6NYD/AzDPn7X4DjLppHeimaC1EsAgAJcAOLEYhU+ZMgVXXXUVhgwZUoziFYwZMwbvvvuuRUoH2G4UnAN+C9RtKVJtmGFLgEsMnwJ4FMBcZNJvF6lCCQxobQRwuC/z9yiGzJ8+fTquu+66uIq0xvfff4/u3btbp3d2/RWcnScBjBV+BwwWrh5i1DH+OXzkL3n2HDLp5wusWQILtBYCmAHg/GLI/LFjx3r+/cknnxx30dZgjOGZZ57Bz372M7sMjoOSo+8HStsVr07c/2Um0BEDwSVLANwJ4DFk0smiJ0XA1kwA2Uk5JwCIffXjqVOn4owzzsCee+4Zd9GR4boejz32mFVap3MflKTvBrZsKvCs1pKfO64SA1UKlyr7nrpk8Agy6ecKq3OCLLZGAtgbwBXFiOa7uOiii3DBBRegR4/YxUTBqK+vR5cuXbBhwwar9CVjj0Bq1NRwIT0ZWiNWE+mO544aCIHIm5BBDNiaCOA4v6+7W9wFDxw4EBdffDF+/etfx110rHBdgQULFmDixInWecqOuBPoUNgtC9QAtCdgJAamJQSSDK4CcA0y6fUhqp1gKyCAzr7M/1UxZP5hhx2Gs846y5P5rnE5Tsu4XZdddhmuvPJKu8RtO6HtUfdrzNCxaNftQJo6M0p/da9CJEx2E/7jijRv9aVMugBZ03rQMt5oFT/xZX7s0XwXrsS/8MIL0bNnzziLbVRst912+Oqrr6zSluy4D9r85CygriYwrWJVRjOzlP7cjiDpb0EG8GdC3u0FfhNVYERLI4BjAdxUDJnfuXNnXHPNNTjllFPiLrpJsHjxYowYMcKLC9igbPIVSPUZHuFMFgqBYA1a9sNACCqZ8GRApMs2DI8C+D0y6fdtr6g1oSUQgCvzL3CVbTEK32uvvXDFFVe0OJlvg+uvv95TM7bocOKTYBYqwAamuABNDIbWHjZkEKgK5nkfUcmkHw97LVszmvPbPtI3+sOLIfOPOeYYbxhtt26xi4lmBZfgXn75ZTQsI2CCg1TPHdB+ys1gtZvtT2DZuqvJCVJg+jJMZGCjCrg0awHsjkz6Q0M1Ww2aGwG49ZkM4K8A7Ie2WcKV+ddee603Nj+Vaj0fRg6jatrufjJKhx6gtM62IFMaDBsaUjARgj0ZGIngJQCnI5P+wOKytlo0FytwZf7v/ODNP+I2flfez507F+vWrfO68lqT8bst/1NPPWWdvvr1u4AN33lMnP8L/o9O6e91Gv7c/znZv1wK9TzI/p/PpzlTQ5l+OqFUfyt7XKidhz0BvI+KynmoqBxRhFvfItDUCmCEL/OnFUPmH3300bj55ptDjZPfWuES35133mmVNtW1HzoddR/Ylo2BaYNdCz+dZksWGrJGIP3+XONP9xkwrXIwKoI/exPEMul1Vhe0laCpCOAgAJliyPxOnTp5Mr+1tfRBqKurQ3l5OTZtshv6WzbyELTdbTo5dTgsdCShlf7IW7oq/fO/9IYOJQ7AZLNXiYD5Wc8FcHNrGUfQmBZS7s/EY/5nsmI1/hEjRuDBBx/E+vXrvYk5ifGLcO/HO++8Y51+ywezUf/tfyVXQPyzhcNLf/8PWumfl/8Q3AUxvfd/wkUAn0aR/359JNcgm9q3h5sAfIuKyqEhLrHFojGs5If+N+zXeswaI9yH+NOf/hTfffcdPvjgAxxxxBG5/QlEuPdkp512wqWXXmqdZ9M/LwMc/StiIocgkggiBDsy4P7zyYCKFeSJwBQjEI5196YmV1Q+6m1VVG61L1QxL2wygOsADIu7YFfmn3POOV7/fYLw6N27N77++muLlA7aDNwFHX76u9woQYuBf4GwSSa7DUz5vxozUNJIboTqGkjHmFgCN5hoV2TS8+2urmUhbgVQ7nWtNNy4p+M2/uHDh6OystKT+ZdffnmcRbcqfPihbRc4Q83nC1D75fsB/QFitD8vzWkpYKMUaHWgKgNKFUBWDhpFAKX+DY6A5Ba4eAMVlS97v7YyNRAXAYwEcKMv82P9Rr37UA444AB8++23WLRoEY488sjc/gTR0LNnT/zlL3+xTr/xqYuBWtMSYrQDQHcFBpOCUrrQfWgwdEeNJpiIgOo+zLkFarfh7qioZP43ILcaFGpFP/VlfpRB5EaUl5d7o/VuvfXWuItO4GOPPfbAq6++atWVV9prCDoffgvYliqrsoNL1EX+7crh60x26ynugegakMcUl4F2F7y5BcDlyKQL7yJpYkQlgLMAXApgm5jrg5EjR+L444/3fPwExUcYJdV+/C/Rdsy0YPM2HNYfUv1727wqGdBEIPxfGktgjg+Q+10/6gBk0l/qr7b5I4wL0M+X+czvKonV+A888EBP4r///vuJ8TcSXMOZP98+tlW14AGwqu+Do/6Gg3ovgIr8i4l0bgIVK8hJdyVOIHYhqvEB3i3InleJDcBXvZ+hovLnIW55s4MNAUz2VmkFlvktf2xwZf4pp5ySW9Ry+PDYPYkEBriGMWHCBG81Y1tsePp//KbQZMYa+yd20oRgTwby9QQTARQiyMYHwOdRuhTV2ACANt4qxhWVdkMsmyFM+m+iH8mPffG7ESNGeDL/3HPPjbvoBBFQU1PjLXu2YsUKq/TtR09B+11PUEYJBo33CzzCgnKqw4FNZ9G6BmFiAPaxgU+QSe/k9RK0oFGEOgKYG/FzUUZMmjQJN9xwg0cACZoXPvzww1DPpcu0W1HSbYA5ESN/2lGFBRno4gVyWhsiCNyvxAwUEsiOGeiFTPob8gKbISgXYLE/Uyo2nHrqqd5D+Pe//50YfzOF636F+Xbh2odPh5Mq1XbdeeClfs7nhuB1q8KfcBc0zobiInDlCCkl1wDKOALJZSBiA/KQYt4lgDhm4EtUVFp+oKHpwd8rlwwWAdg5hu5B9OvXzwvmJTK/ZWHkyJFeMDYYDsoGTUD55MvBAj4zZjN60KQQdMpAO1ZQm8bfp474i6AGaJeA0yWTkUk/Y7r05gBeAVwEYGihxn/ggQfi2WefxbJly5JofgvECy+8YJmSYcvS+dj84dPZsLkW+sg/rRB0ykDeoAOHoiLQBQsBqUUnegty+wk1AIiBQ6iTjv6Jikr70VZNhCwBdPBX2Y2M0047DatWrfKi+fvvv7+3Lxmt1/LQs2dPPP64/bJ5G166DU7dFnLGn+75BxEC30XHpyJdhIhEILoF+TzInVfqKZAMXnRnoOsqPKm5k0CWANzWvyRs5u222877GKYrqW699Vb06tUr/homaFS4RnHooYfiRz/6kR2BszqsefQclJR1IA3bhhS0hKCNG9CxAh0RyPEBighoNcAZtEOQAxEXgBgXQHMngey9mBcm8Ddp0iScd9553r9b20q6CRrgPtcOHTpg82a7BUI7TTgWHcZOo4f48uVqzkXWQbOTHgSsZpRjBEHxgeDYQL5bMDAuwORcWIJMemfyQpsQWcu16rc87LDDvEkkLfmDGQns4L7Ar7/+OnbffXfrPNsc/3ek2nbOl0GVG7RtSwZBREAaenCg0DpAyBm8JQkwr4ctk25Wo92shwL/7W9/w6xZsxLjbyVwVZ3rBlx88cXWeb578FQ4KU4uCxLeL9fwB6jTgCHl43dQQUNdjIAvhXILIJ8/J+2dnEsA2SXQBge5sgDOYcBQVFQ2q+XIrRXACy+8gL333rv4NUrQ7LDNNtt407Ft0Gns4ei82/FgxFqCcutsUgNUq6wtD/aKIIxbYFIDJjfBSgkAI5rDiEFrBXDBBRdg5cqVxa1NgmaJOXPmWMd5Nix8BDUrPpLG0Ut/0sIhJlXg2KoCS0UglxCkBgApsu9A6SqUg4NKr4GqBIYBaBbz3LMEEDjy4+2338aAAQPw0EMPFb9WCZoVRo8ebf+1YQDfPnY+UiVlgoxGACHAggwARCACiL+I3gK+DrDoJVAMntrn8KUrJODiVFRU3m59U4uE7LX+2auQJX75y19i5syZSQ9AK8Pw4cO9j47afGasrM8Q9Jp2C1httbdHzkIG5uRjjN5vcg/0wULaLYjmEtj2EBBzCNTegduRSVvbXtzIWu8Q/9vqdpkcx7uQzz77DIMGDSpe7RI0O4Qh/G77nI2OO+9PfhCMJgQNGUj+O0kKJiIwfVhUiQ2EjwvwxAAtCRi7CI9DJp1BEyDrAizxFj607A7MXvDgwYNDScMELRvuc581a5Z1+jXzbgWrWqOR8tw6gXwknZ9tL7sIVDm58kTXIMgtEGIDOpcA8jE6LiCOKORHMVr1Dri4HxWVk6xvbIyQ6TxSVHLEiBFeoKhPnz7x1CpBs8bxxx+P+++/3yptm56D0feX96B+S/6LRMbov9Lyii02Jd+VfwtQAyaXwF4JIDcuQKcEmH+xLH+WLQC2BfB9Y/YOyL0AB0QpZNGiRV6A8JFHHomnVgmaNe688060bdvWKm3Nt59h7fwMnFRKH9jT9RBwPe1KPlPQMIIayB0j1IAuOAitEsim0SsBRzift1UG4Dv/30aDTABz/CW+Q6OmpgbTpk3LTQSy/WhkgpaH0tJSLFiwwDr9mtczqP3u88BoP3RuAuEeyEYESyLgN8K4BOFJwOHOoyMBRyYB12jmN+a3B2QCYP5qp719NgqN559/3rsJ9h+fSNDS4D7fkSNHYsaMGdZ5Vs2+BI5Tyo2uc0KMA9DFCiTVgHwaSPEBgM+f33AccW/cJJAnKRsS8P4Z5X9Kr1EQxDSuo1cRtfCrr74aF154YfKhzq0Y3bp1w5o1ayxSOuiww4/Qe/JvweprvT02/jYd8Vdyiekt4wN0bMAUF4gaE9CMImTG7sH9kUk/hyLDRmpMAjAbQFvL9AJGjx7tLRCyzTaxf0IgQTPAypUrse2221qn7zv1j2jbe4j3m+z7502AMGQQRCAZTjMnAW0QkCKBbsikbdg1Mmya5jkA2ntfS42Ad99911sn4IknnoiSPUEzR58+ffD73//eOv2KWecBrDZA+vOTcAxBQzJGQB1TYwOQyspumIKD2Y1Q7gAkd0AfBBTWEvCx2PrGRkTYFv1M/6MgkYIU+++/v6cGkhGEWx8mTpzoBQZtgr/t+g5Hv2l/Qr0/ShBKay7/ZoGtulhGviWOpAZiVAL59QI10l/pHhTWF3T/mYVM+nDT/SwEUaywt68Guoc+mT+C8MMPP8SwYbF/NTxBE8J9rmFiPb33Px+dhuwjSHeQ4wDCEYGNW2DrEjCGGEjAwv8nSEAaPTgRwIJijA+IEp1b5X8sZGbYjNmbkl2Cur6+PsLpEzRXvPrqq9ZpV825Hqx6vUXEX4zR61wDvVuQLwu60YSarkKH0/rR3QFHOTfgCGMEwPUMgHAXALzuf4UodhQSnj8WwA8B2K0ZJeGiiy7CLrvsYj3PPEHzRnYBkWOPPdY6z5ezfyP6xJQhk0brCN1nILv+wKVU/W4ExAUglFMYCeTT0OVQMQMpHuD4n+eLHYU64o5PIv8CsF/UQmbPno2DDz64wKokaA6orq72Fov97ju7YSTdJxyFnrtWeAuIUH437ePL/7JAt4ByCajyiuUOaHsGDNJfjR+gApn0X813NBwK7aB361Xn9VkCv4payCGHHOJ9TyBBy0fbtm29QK8tVr/5d2xZ/bmyFDgt1f1/qV6DADVAuQTkcmVFUgJkK09Jf2kb4q+7UVEZqysQ5wid+wD0AfBFlMzuS+PeqMWLi97zkaDIGDt2rOfi2WLpAyfBKWkj+fA0EcgxAgh+taNxGWSXgMvXSCSg5nH08QDO5B3RFSiN2xWIkwCYHyAcCOBvoTP7smjYsGHeF4WSuQQtG//7v/+LoUOHWqZ28NXTVyDFfWvQlggoNaD387P76LhArCQgXyERFKTKCDjmeMv3V1SOt7yxgSg0BmDCD72JDUC7KJn79OnjqYGuXbvGX7MEjYIVK1agb9++1ukH/OJqtO83mo4DaPx4aGMDLKDrTxqxp0lrPU5A8f0ZPbYhIB4gdw1qRgkyZNKxNN7FHKT/AYBOAJ6PknnlypXeOPPKysr4a5agUeCSeJg1JJfNvgyor9W23o6wIKdZDUDqKdDFBRBFCVAjBinZHxAPABEP0LkCSq9AReXl1jfWgGIqAB7TAdwVNfPkyZPx2GOPWc9BT9C8MH78eLz11ltWadttswN2OPZu1G2p8rbJyH5INUD1EhRTCQT1DOjnBxDb5gFCJcikCxpM01jT9O7xVztZFiXzM888g3bt2mHJkiXx1yxB0fHGG294awjYYPM3/8U3b8zUBvRs1ADkVlwTF0DMSkDch8B4AJTxAao60A0Q8vnkRaubakBjEYBb2ZWumwfgwdCZfcbceeedvW8SJgHCloVUKuWtE2GLr1+9F8xfQixw1J8olBWXABwJqPuQP4e/NzoJGIKCsboCSkDQNtJKoikm6qfhOGMArIuS+Y9//KMXWLKbg56gOcB92ffcc08cddRR1nmW/eMKpEraCkYKnS9PqAFAExcghhrDkgRgIAFCCwTGA4Q6UCRBHHNUuokUY8uiaVbqYOxdHPPAd+g/LlL2bIAw+UhJy8Lf/vY3lJeXW6XduPw9VH21SOyyMy0nJqy6A5I4BAOPQAL5dKqwd+T/S9ZPGbnsCgjbQiHStvDpcmyLispfWN1UAk1DAG6FUyWDnf0vhrPbiZGLOfLII3HQQQd5w08TtAzMmTPHOu2KubchVVqmesCEGqBcAn4/FBJwQpGAnA4Q64AC4gGyKyCXqVcFubQ3B91LHZpqra6bvYrX1cLZaR+UHP8I0D5af/8///lPtG/fHp988kncdUxQBEyYMAH/8z//Y5W2atUSpMraSa29qgZAuASyWCaN3YIEdPmt4wGRXYFQAcF+qKg81Oaeymh8AmioaL+87EkBrB6lxzyA1PCDQhfnDZBgDDvttBPOP//8JEDYAvC73/3OC+jaYMN/X1Okv6wGFIkOMS4AIwnQv62O2cQDDK5Abq/sCkjSX9YOjvTD/+cWzS00oikUwC3kBWzZhJKJFWhz8LVA286RCr7hhhu8mWhr166Nq64JigTbXgEn1dB9mDUcnRoA5GPZ9EEkQPcOUHMHSEkeEA/g8+VLhJxC3NaqhPhVQOMSgNz6y0zHAKfHYLQ98i6kIgYIV6xY4Q0fTj5S0rwRZoiwIxmmaEAqCaBAEpDTISAoCIjnjuIKBAUELVVA6FhAYyuAm61YrqQUZQf+D9r86NeRTzRt2jRvVloSIGx+WL16NQ491K6xcsAUY6JdAl3/vz0JyC28SDj6oGBkV0C+ViUgGFoF9A/bI9B4BNAwYKE/OPnWAA3D1dWgdOdJ6DD9CTgRA4TvvvsuOnXqhHnz5hVe/wQFYdGiRbj33nvRv39/9OjRA08++aRVvg69duS+zy+1rI7qDoBQCUEkAP6dJGU+jIYpkwC/X+8K6BvB/PWZbURTzil0IhqNqQD8IAXBlrltid3cB8/q0fG4h9FmxM9Dn5AxhtraWvzkJz/Bqac22SfYWy1co//DH/6AkpIS70tCv/rVr7B8+XLvmE2w1nFSKG3fxf8tGp8syZEjgey7Y08CYjpHaeEhlwOQRMGng1I3NVWhKkATTdgfFZXWK+5qKCVmVFS6RFOXv8GOIJ8cXs7wD8nhB4E4qPv2v6h65nfeYpJh4ebv06ePNykljP+ZIBxco3db99/+9reoq6srqKz++56JniMnQ6aK/NRYalIPNwGI3C+u0GvKz08sYpqJQ2oaadJQwIQhxm0w5fryU4Zz27m6SxOFxI+M/BmZ9Ok297ixFMBtDdcnsxqvBhxBkkmjnTyU9NwBnY66F6URAoTuDVqxYoXXSxDmG/cJzHDv68KFC3H66ad7E37clv7SSy8t2Phd9BjWsMykKsnVto9syQ1KQPDppXTkOS1cAVCugCz75XpDLSRKLECyl9NQUVlCnFZBYxFAhQNpdKPWr3EUJ0EIspS0QYfJV6D9j08GUnYzzGRMnToV48aNw5YtWyLlT9CAuXPnekbv3ss///nPsRh9FoN+ehFS/jJhWVAkoDNiHQlA8P/VRkZonAzxAMoVUN9k/ocj/1SuSivHLXoEiLxn6orjUXwCqKg8qGFVIN5T04F3Bqij/r+pFJy25XDaRFpsyMM777zjrS+QkEB0zJgxoyjfdug9bip6uq2/I+tElQQQkgQUNcBvO9K2IR4AolcAnFsrQ70SOxWgNodSDZTMud/NhACAa2S2hFJlqR+Wv+nSzWQ1m7Du/jQ2PX8tWPWGyJXK+mouESSIhmJ806HXmEMwcL8zvGXCc0apWdUH1iTApVfS6YOC2vwaV8DUaMkkEUYFiESgrm0A6br9tINQUTmJKE5AcQmgotKtSS4iqV4EPzRSfpDqrWC1m7H+r78Eq4pvKnCPHj1iK6u1YebM0B+H0qKsU08MO+pmDNj7VNRvqVLbNK5RQEgSgGbEYHbDkRSnPMaAcgWocvh9kVSAnN5xtOXTiloJOAR+bKPYCuD6bPDPdKEgOFC+iQ5jWJ9Je/MG4sCoUaO8LqkddtghlvJaI3bbbTdcffXVBZXRodcO2PHnl2Hs6Y+hY5+dvOechQ0J5A1eTwLZI7TMz/9Pb+SqK+BIlknmlV2YIBXgqNcNru566yHIrmHjNG0GtUpFQEXlpwAGp7LVdxylD1Ps+uPZ1snfwJI22PTUDNR+9UFB1enQoQMmTZqExx9/PIaLS5DFkUceGWpthjYdumLwvmeg16ifo2bzOk/uQ1hrT/pgqPybWm03lzXf3Uat8Sd3D4rdgOqXgxjXgceYVK6Uz9QtSK0jSK4hGFuXYO5aDkYm/ZTuWRRPAVRUDnCN39HTmrrbkf2dBtSvXlqQ8bsy//zzz8fGjRsT4y8CHnzwQfzgBz+wTl+zaQ26bD8RNZu+B+rzPQf5Ftkhu/qgUQI8yG//SyMGoagDe1cAZGuv9kjI9dGqAMIGICkbvgTymsnMuWs5nsiSQzFdgLN44qMuIyCK6dewFNVvZiJVYPTo0d6koG+//db7GnGC4mHJkiWhPg++4E8HIVXasMqzbDh5Y3FouQ/aHchnI/JpjNcJ6QqoBq434GB3V90IluSOQEg5S3K0pRjnBhSTAA6F1PdvYnLlwWSZs7QMtcvDReonTJiAr776yovwT506VSgvQXHg3t8wnwd3n/b7mZNQUtaO2wP1t+OQ+8OQAJT3S40HqGlyp9eoVHsVoF4TaCmg2ebHPAQIalpVVFRqx9EXhwAa5P/21CAfSLOrhGPZX9yTYd8tBaurCTylm+eoo47yBqPMnz8f2267bcGXkcAe7v3fddddvbH/dmDYuOpjLH3hz0iV5AetxUkCkA1SlvSKzIfgCtBKwVFs16QCoGl85PqGa54oNU0QS97GjtOVVCwFkJf/Di3/lUo6UEjB/V1v2eXnGv0DDzwQSoYmiB8XX3yxRwS2+OrNh7Fu+Qe57wCAkvuIRgLUBCKTRJfTgDNwGXRLr5m1SNSbgtwwUpYi1oc09oYtsdKH6c5ZLGvZP1dPlq0eVznQBl8Ixo8fn8j8ZoLXX38dZWVl1ukXP3IR6msavgQkd9PBQAJCOkLOA3RQkHIF1Nae1K+kCgClAuR8lL+htN6aazOUS1TF22Zyg1tRuS9VRvwE0DDzb2SuEpL+0sl/vVyymTbqYOLEiXHUPkFM2Lx5s3Xa+toteO/+E72FYBCCBLSKQIIcD6BcARDuAp9CpwL059Qfo0sR9yl8Ia0YFOQGEMqIVAHFUAAH5Cqt+T8PSsLxKOm5feAJGWNYsGCBd5NWr14dtd4JYsabb75pnbZ63Tf4sPKcfM9ABBLQuQL8YZ0roAsIGlWATEKSqtUZse64jRwm8/q/mXtufqCEXxd/a3+qvGIQwIm5y3Ty1WAaqRK05ZS1R6n3yWgzsgMuevTogdtvvz167RPEAvdld90y+5GCDOuWvY9lr9zXsFJ0BBKwdQVAuAIAHRA0qgDNisRqyWb3gN6mflHH8ppaUQC5MJy3tSMqKgfKJRWDAH4Kw42Qf5vlf8O3A0r7/jBUBU499VQvEJWsDtz0mDFjRij3bNmrGWz46iPBKLMwSm7+X90cfHmNCUkFGMskj9FmLZdnKju7ZXIjGFd/fo/XsGpIhAml5tzoA+RzxEsADQzTzsReXuX4Oc0cY2VbcfkBtZt4gjccOAzmz5/vrQD02muvRb6cBPHgjTfeCBUU/PDhC7yJX1lo/W9TUNDCgG1UgImAghS8lcLXqApzkrxh82rbkRRBPnOuhAPl08etAA7MVgwcE+mq78hShYziO2Cb16LjpN+ErszmzZux++6749xzzw2dN0G8CBsUfPe+E5EqyS/4og2qBcQD5E0qIIgAFeAY/Xq5fPW4oAYMYwJs4OZXIvwuEbA8HcCR659D0QlgGM9I4G4eNfXXrTXTCSDpxpUOGIf2E46JVKmbbrrJW422GPPXE9jDVQK2qF73NRZVnosSPygIytjkA5atvy6t/EtWovzpdCohn0UW+frzMzKHmEh1KcQFNBpUNVOyiuFAtPd76XKIXQFQPglyvowUpWQO+RCRS8LxHKtDu7FHRCIB17VYvnw5ttlmGzzzzDOh8ycoHNmu2ksvvdQyB8O6Ze/hy/mV0UfSWagAoT3KHddcQ8BeOb9WUWhUhFqqWRs4QgOrpreJA8RHAA2Lf+xkXsKowf+naE15oA5UB6LeJYEj0Wn/i4CU1ZqHCiZPnux9NKSmJnh4cYL4ceWVV3pzNWyxdO5fsOmbzwKN09QrEKQChNZc03LrZuQHbdN1pho78QiTroEqoaGN5FIGxAH8LcENiFMB7ClWUB+hhORXURBkEZ+wvg5lg3dH9+mPIdWxe6SKPvroo2jXrp03YShB42Pu3LneF51t8f4Dp6G+Nv+FJ60rYAFKBciFBKkLuRXXtep8hMsx1VMz4Si3IQfS+DgAy1OGwyTioMcDCHYaJwHsI/tM+f5/ions/H9yHKB/x7sfV4kO439paBZouC5BfX29t0T4ZZddVpSFLRPo4Rr/4sWLrdOzulosnnUpUobn3PBqRVMBIAxU1+evnJP45XALg+gMXxfwVsFIwnOkSulsLVsG1xgLg2riJICRZItvw0pB/r/mX1ZbjfbjjkCXQ66B08a+ReHhStI999wT69eH/9hIgugYMGAAXnjhBev065YvwifPXJfrGTD1CoQBbdQ6N9bc7UhXI19RngyULm9tuXJoj0fweADRGfBTcAOC4iSAYWLF8xv8yeU5XQ0yhur/py47n5cnlTZ9hqLX6f9G2bbDI1X81VdfRXl5OV5++eVI+ROEh9sC7r333rjkkkssczB88+Ecb/agbOSmRgKECuDdACjvHaEGCErgZX+QxM+pAj5tEFE5NnEA0cWQz8mUYzmbytlqnAQwJMtEVhXijDx7M+RODPIWScyfW3Otai26HXYDuux/UeQLcJXAEUccETl/gvC46qqrvCHDtlg69y+o+map9zvuyZ9Ka0+6AYz3p0U5LpflQJOWPrnexVDbQ2GWo0OVIzW4gvuN8fQ1R0VF5R4AXsr39Tses2SnTTrZ//xKpLjfjoaJ+XEDPPsqbC4v/+R4nY34OnMs6jd9H/pSvIEWjGHNmjXo0qVLATclgS2qqqrQvXt368FCTkkbjD/9MaRKy8B/Y5Rf0BOa7wcq6QDUywuJsvwConye+lwZjEiL3Hf+6pUFQhmRNlsnptRPXTCUKYuh5hccFRcHzV5P/h4wri4M9Q1HFiKT9r6vF5cC6JirWo719BOAdCqBT4P8vQiUQiCYeNvpj6LD0MDvIijIKoquXbvinnvuCZ0/QXiEDwrW4D+zLvUXDw1xIsO7ky9c2i9JcfPiII7gDlBxABCSPN+Y2VfdIV2XfFPoQDQYxxEkRMfsj7gIYFdZBuUVvtqVJ1aeumoxcdhn7JFMTRW67X0WtjnsOm9GYRRMnz7dG0qcBAiLj4EDB+Lee++1Tr9u+Qf477+uhxNxPIgOQV8GkgPUjsM3aEzzrjKN/HfkZMphnliM9ZbHDkCsJxMHBg3JpoiLALrYByL0F5D/YQ4A5vZoySEXIUDbPkOx3fF/Q9u+IwIvgsJrr72G3r17h5rbniA8XNfr+OOPx9lnn22Zg+GbRc/iuyUv0QG1oC5D0G6kakRUsXZxACA/HoCw7VCwvxoeTHWfJcSmAHR1y90YprkIFsRtuYSEhJIisDqJV1KG3lNuQNcfGZdI18L1USdOnIiLLooeYExghxtvvBHDhg2zTv/xk1egeu0K77di2NS/3DvC++Egg3RyWypuka8b9446VKNusny5QbMwDZ64dA0wWdeKSs9m4yIA44T9vC9FuAOmHgBHKkW5IaI3RcssH3U16DJmCvpV3I9U204Wl6Tiuuuu86Tq99+HDy4msMfChQu9kZq2ePfe4zUqgEhMDLvVdck5UhzA1lcXDJ9JVbFq7zTvv5xK6AkQhwSL2fiWM1cBL8IdFwF04GWOjjf1+8JLIl0+Bn2wxj1S2mkbbH/6M2hvscqQDLel+OKLL7yI9fPPPx+xxgmC0LZt21CTtlh9PT586DyN9wvxl8WL5jiq+2pqmfnZgUwalEOv4JvfQ46Bo69SuRbB3pi8F9pG00+5G+KeDego/zfRHc3YWt9LkyV3nLiROulXt3kdtv3FH7DdlOhBpP3228/7DkFtbW2k/AnM2GuvvUL1wqxf/gG+fGMmUtLzpMwChjiA0fClEmRX1BwIzJ9Q5x4gSF1YtpKWbkFnxEIAvi8hQ3dy6reQybRteiAWUktkcYZ22w7FDqc8gZL2XXWlGvHggw96UvXrr7+OlD+BHq5BnnDCCTjrrLOs8yx/bSZWf/yyNFNH1AIyIfCviZ3hh50unC+dMnxGvrd0w6nsJeJneZXvSA6ygljHAYgVCPRD/J/WXYDqpeiHUvo5KPVDPSQnhR1OnoUeE44O7Yi4LkFdXZ3XS3D55Zcnk4qKgJtuuglDhw61Tv/xk5fngoINoI1JIQQW3FUXEL/TpjL1BESxgXy5jpKFGWyPOlMcBFAmV8KvibQrO4yJyXsk2O4NjqaQjAu5+9ABq6lGj11/iR2Ou8/rMYiC3/3ud97Y9o0bN0bKn0CPd94J923I9+89gWumie4vyvsMnGloOGaATuoXA0EKW6qHt8hmHASwn6lKlEgxuQb6kvT7A+MDpmBhNgFjKO3cC8POm4v22+5sUSMVL730Ejp16hRq6asEwSgrK/PWELAFq6/D4ofOy31jIKhvn4TFQiJR8gaOiQk58I2qVZDy9X//CDERAKl7A/39oEwhYDPQyDZvXdUaDD7yFvQ7MHqf/2677Yajjz46cv4EItzWea+99vLWbrDF+uUfYPnL9+S+MUCWazonsa+Q9wwWsQWb/DYFBCfJp2hxX9Is5AYi39hzILpX6mpQvtNeGH7mP1HSvjzSeSorG9ay27BhQ2EVTpDDFVdcgUMPPdQ6/Zevz8TGrz/R9gRkITdWpGzXDWQzlBUWJtVAbxR+1tgIQB9mCF85mxy6AYQBnlzDL0efQ+y3dTD8tKfQbajBy9HWr6GCnTt3RiaTCZ0/AY3HH38cgwcPtk7/4cxTc7+DDCy75LZ6XDfpSPdO6VKZYUNQQcfDWlvMLkCxwh1EJKHAO27ro9Vv2YR+B5yPHQ6/Hqk29qPTeBx33HHeWgNJgDAefPzxx6HSv3XTz3LxAIQ0EkcTyZLT2JdG7G20r1qr54mDAA6OoQwOjacirMEYOvYdjuEnPYiOfe3HqfN4+eWX0atXL7z99ttx1qxVoqSkBC+++KJ1esbq8dHfz/DWDygGTPRg1yTaTX4rBgqfSzl66gkA+imLf+SYzeHWb8svDJJbpYxfnVVaCASca+FAjJDqvrSar0c+vwNxpJcjfR5aWF9O+oQ5nz6VKkXPUT9v8O2XvRf6VtXU1ODOO+/0Rg/us88+ofMnaIB7/wcNGuTdR9tl3Las/9ojgvL+o60G3NpqWYfIw/8brxnrSzO5D9prem/W5U0aBGw86RMNVNSV1dWg94QjMfyEDErKOkQq9w9/+IPnx65bty6WerZWXHnllTjkkEOs03/lBQX/r6h14hH/2x3SFbZAIxKA0KTHWWLRytC3Ag7Kyntj7LnPodN24dcZYIxh6dKl3pJjyUKkheGJJ57w1IAtFj9waogp6E0Lq2A4mUETayD2NSIBNM+bHjhdyZCgdvM67DTtBuw07Xpjf7MJe+65p/dXV1cXKX8C4JNPPgmVftH9vwr9tenmCsGo5TnIEqi9je8CcLVgzZyJrWrHmKcCxpz5FEraRVtn4JVXXvEmFSXrDERDSUkJ5s2bZ52+es0KfPLIBZGHfTcWNFN9xDQF2lAcBFDAyEXDiOUYuKEYgzJ0aZ1UCcae8RS2nZgOfWb3IdbW1nrrDFx11VXNnhibG1w/2FVRv/mN7SfkGdZ9sRCr3n64yDWLG/G/F4W50Q0fBL0EwJUpQy9AStcL4Dji8Ejp44ZiNN9RegH4vNlzpMB/JNHcC5AtN5+3IUEqf0al10DpfRDq3ZB4y9oV+OD+6d4nraJg8ODB+M9//uONgU8QDqNGjcL7779vlTZV2hajznhSINzsEuHe4BaWHeRCLOvNLx2ey+v/C8blJdJz5eSPM0HB8+WCXx5cah9Zrr6My5dfKtz9f70/xbjhmliuHsikIzquWWTSLDurKAhhmMZW+mj50IIodV005DDQMGAMZeV9sNvFr6Jj7x0jFfHZZ595q+K89dZbhdSkVeK99+y7Z+trq7F87u2BkXT9Eh/czFY7f5Hc05SKL7YYAD2EUv5/fNAtARfcw2sGCwqkUA9LYmXHCxBuwJCp/4uOvX5gdV4K48ePR0VFReT8rRVbtmyxTvvdon8h5X9XMrsmgAyHa3mjgFm+fVHluDzdXT5mKrdoQcDYB0E4+XJN5wxCIfkZdIuYilj7xTtYcMMkLPzzlIL7nWfOnIkzzjijoDJaG0pLS62nD9fXbMba/76W22a6d1ezwIwMmwE5YfMqBYXMaVqBo1GCgNbkGdE6C5XthTyYvGBg2PDlIrz9p4Pw8axLwFg83XpuqxRG1ibITx+2/fDohuVqzIAiAidEa65DYF6mT8MCC7CtWT5dHATwpL54u/7IqDdUeCCGQqiH5gR3m9oPB02l8PGsGVjy8Plg9bWxOzzHHHNMrOW1Flx11VV2CalQmKEzKrDBMRhxwTGmiPkJN+E5xEQAbeSS6dlT6khA+/FKKpj2Jov0Q7I4CyYp/XnF9I6TwscPX4D1y+wiz7bo0aOH96WcjRs3ep8oSxANI0eOtEpnCsSZGhgr9VhgAyMjOCSpJy4Ont2WRqyDtlze4Bg/ms5heUcq688zRkRgmeDwMwfCSuthhkempEoyqsLSDl0ayi90Strg44fOwYblH8TW6g8YMMDzX8PMeU8gYv369fj2229x4oknYtGiRYHpnVSp9x7Wkz1LdFMht+Q2qpdu/fXh8+xPXRidEZ9GdiBdg5pEQBwE8AG1UzfERyEHUyaikKDgIgtj+Nk8XKEpLo8jcZeMdZ++QfqPYeG29pMnT8Zf//rXgstqjcgafCaTwTXXXGP9mfEsygePF3oA6gVjUc2W78fXE4EKXR4hn3fQ0lHwP2VPlhPsfv8HsRBAJr0BFZXSKbJttiPthWxaSu3kT4oLhGGwfl3ABoIK0edx+Dws/xFIYfQRlyfVph2Wzb3d5g5p0b9/f28Ia9Lah8Pq1au9YdNXXnml922GsAYvo1P/0aitWqe4jLlBQKQt5dtlxvj3reGX1nwN5AEEjCcgjhnJxBzDWImYFIB/otyX/whjD2j5I+zXHc/dfiYt48QZdCBZECdhwhoCwPrP30b198sNNaPRvXt3r7WfOXNm6LytFVmDv/rqq3NfC3KI1i8Keo76OeqrxZWalPiSYw7sQWjdReM3jSthhMFn3181tQPZGRCC4I7yw2/J1DUw/U1vscq4CGA+gIm52mWNzbeabOvtGOIAouH5dEJZqpSOJ5j8jaF9B0pd5PJoFAJkddBQaWxevcz65pSVlXmrAbmt/fbbb2+dr7Vi48aNWLVqlWfwd999t7dPNvi4Rs/13WM66uvrSIOHJohnJAImte4W5KEvzHxWKgbAnyynZrNGLxLEK4iRADZky6c/htigqWUbYwi5oIHKH4FGDI2KYIK6Z8LQwmx5KdItaDirTeufSqW87wcmrb09nn76aRx00EFFM3gevXY5HCVt2nsEQHcpqx4138pTLTifPmyMgCcKORSgy8dkJSDBcMyTPXGNBHxFJ99h8FMcyTXI/5D1gJAin4eSan5a/uHIpEOBn2SREzB8eq4Qp6QNNn4VHF2ePn16Yvwhcfnll3v/Fnt8fK+xh2G7PX/tLRMGyWBhMKiG9yLfmGU/QSe/o7nkjI4IsIBrpJSH5gzCufXxAOlIJu0F7+MigI3y6RnHmfLFiD4SdRN0t1PNLx/gHyT/cIJuqCPUmEgnjR1IlQavEOzK2AThMHbs2CKfwUHvXaah396n+YO2RDC5FZbfh1wsCUojw7TE4eTKFvbme7v5ZGJ9/P87UpK83YjRNlNjC6hkFJsCyFWG2VXGFCsVL01SCRaSKxdI0VA4I9QJAz3YO1tHvg71dTXoaLEU2OzZs7Hvvvt63VQJ7HDHHXd4YyHih4PS9l0w7Lh70HePX3nPkIe2ZZUOmCQ/ZLVJuBL8llyWSfQoh3LfMOB9fkOjKxbwZvZHPASQSb8uViFYjujbfWlbHrVHBAJp6abSqSLzNCMCqXrI+xxunXkTXnjhBZSXl+Pvf/+7typwgmCEXfdfB9dVa9OpJ3oM3RejT38co055FG279hU/UCsN/tFJ//y7o7b+fCJeRfItvI1Dk23Lda4HJKLJBxp5HatpfMXY2VP+Wh7GHrZwqKhcDmC7VG6ZbXkJcKchqCYcy8fr1eXBkY/nE9u5m8At0OFw0t/hegNSwkIiyC9YAv3iIOJxbvERf8GQ+i1VWHT7Yda3x61n+/btPUKYMGFCs18Ruanx7LPP4oADDgiVJ1VShtL2nVE+cCx6j5uKjn12Rn3dFi/IJxsnOBnNOIPm/fl6zugY57fzBl0vLdbBiPKyRl0v1YE/P6QRf/I+00IgjGXPoS4EkmuS+YVAgMORST+KmKcDfwaK7fiLUFS233rLU2xJKU4foGIIgsR3pDppZJcjbau1FB9eSftydB5o76+69dy0aRN23XVXDBkyBGvXrrXO2xoxadIknH/++aHyDNj3VIw++SEMmnQe2vcYiLqaKu9LwUHQyn85jYVkN6kH8C4nNQBAcy6desi7p0zRr4zoHufwWfZHnAQwh6ykk5dNyg3MVjDoZkh5dHdEkfiaOIBe4jNiH53H9SH77vlruiIB+OSTT9C1a1ecdNJJqK6ujlRGa8B1112HoUOHWqdf+uxN2PTNp95vuRHSQVEFxHH+rQh2EfxtzRh+8n3W1DG40RMDgPw+Qk/k/82kc5+nipMA/inVvIGHiEEQomHRVy5copyEHBDEbTE1YZgHSZelbrftMQjbjJ1ClGKHu+66y1sNuLKyMnIZWzs++uijcOn/fpZC5NS/8m/ZRaBmm+q36YaDHltgApUoL5vzr7U+AMiEAGD2oKCwX+VLj5MAlvCXIctm/pjYA0D7wmECIkHjAZSsGqNm0rZ4nKnHWT367XMGOvSKtvZfFkcffbQXH3jzzTcLKmdrRZix/vU1Vfjk8d/Sc/w5KP5//oialtgd9M5A8/bq3mcjuRCj2ByldXdE4hGCZUKgfAlfVHwEkEmvB/Al47wPiqUcfmAEZ1gKU4eQREo6Q6sN6TzqNv1i6FwE18/c6eg/e58Liwr3ZXRf8okTJ+IHP/hBwZNbtjaUlZVhzhzSwySxdulb+OL5WxpIwBD8y4F7HXXvha5Bo/bpegeYrrmTxhbwNq9TDzZ2BsLOADzDlxP3moAfh2ImvgsvaFRUwHgAm+4cGzfARDKUjPS26+vQZ7cKDD3uHqQifi8wi//+97+eGjjppJOS7wP4cBwH++23H84++2zLHAzfvPcUvn5ntlZhqi0/8k9fltwaxakanupikO+gPIXX2zSPflXh5JS2brwNaKUt9LHGTQD/ItkIqm/CuEoFDQiSijQKNkp02bT21L/gXxTipZBforZdt8PoM59G/33PhFNS2DSLu+66y5tL8NhjjxVUztaEG2+8ETvvvLN1+mUv/hnVa7/yfmtbfw0ZMMMxXX5xH0Utaj4lh+ZlVetmUNZE+bljmbSwgEXcBPDvhn/E6CR1TVQcIM4WTzRYtTdA+TiD5jhRsvaFcOtfX1uNHiMnY9wFc9H1B7sXfB1TpkxBhw4d8O677xZc1taAsHGSxTNP9lb84SEYddBz5xIxzXti2kbYmYABw0OEsQN8UxbQc+YfflEuL14CyKTfg8R+FFtBYStfD5BLbnOXyqS9Fm6AeJx6uOJxqs7gHj6lSihCqN28AYN//luMPv1JtN+msCnAVVVVGDNmjNc3vnHjxoLKauno3LkzFi9ebJ3eJeRPHpuRWz2HlOSGFtvUcgflsZf/YiLFuLU1EBVp9h9dnA3A83JJxfguwPNkHIDszxONjgrOBMl3qlTqptBlqAZsOpbfz8gWRLkGxuCUlmHYL+/A8OPuLfiLtHPmzEGnTp28Za9qa6N9dmxrwJAhQ3DLLbdYp1+/9C188/asXM+AbevP9/7IrT//vtDviN3x7BatKOVtsQJMM+CdJyi/ac0eVFbwLgYBzFFb0Gyrrw5SUBYxjAkqG6tsLTMteYxQAXzJugfMl1zP6r0x6OPOnYM+46d5HxItBDNmzECbNm287wW0xkChqxRPP/10nHLKKdZ5vnzpTqxfuiC/g5lbf9Mzpd4NQPz+XyRYZvOSKfMM6P5/wdX2pwDzKAYB3CZU1DBMUa603PrKWySLEizJNMdJaWZgeQQwOKU0SCXj76+v2Yy+Pz4BEy9+tWC3wMXo0aO9kXJr1qwpuKyWiNtuuy3UeoqfPvEbIFUqPU//3dL4/kHkTj9p5MoUjjDxPWbECyy/6ZT6hNwQMbkxFfv/fdxLXEYRCKBhPMBXLDfMl6soTwqCYfI3TbVA+cGE4Vcms6TcoodgepUkmJSWS8c0+oIBWzatwbBjbsfYs/7hrUhTCJYsWYJu3bp5reGmTZsKKqsl4oMPyEWp9elv/pn3VWAEELuyn+j640mAdh94YydaFv4noSbEbbL5I/4PqWHN4d8gUKxvA94un5+6SBiZ1AxZXdi00LnNALbXqQCqDImIpZdAYnw+LWNedHrMGbOx02FX5V7KqLjjjjvQsWNHPProo61q2rF7zf/4xz+s07O6Lfj00fP9eIzY+ovvS/C4f6r115EK9Vv31ptsQV+WqESVnZn0w1R5xSKAf1A1U/7PswJ/0+XWk1H5uINBbGsgmjCMDzKtGhA0vQQKYbB6dB44DuPPfw7ddvxxwfGBww8/3FMECxcuLKicloSf/exnIQYJARs+X4hv3nrI7xkQj4V5F6BpMGR1YAu1HZePyxbOuIZHjWRw2/N05ywOAWTS7/JVoFdGkX1+GzYMx5iycQsEFMLno24wgzrjS1EAAWTEJ66t3ogdDvoNxpw6Cx167VDQUg0bN27EuHHjvGh5a3ELbrzxxlDrB6x6+a7cwq7Ce2KpBm0aErlBkskfhoZJC36OP5mTjKv9U1dc0T4PDuA+uXrZiplbx6yBSqZvYFnIJ6IMz9BnH6QCqDLkNErLTtSFfjnEfak27TDsl7dhxHF3oqSsIwrBxx9/7EnkU089tVW4Bf/617/Qr18/6/SfVZ4lrAadNS7d+2Fu/RmRnobyNsg/iXeZyfYhlyeJA6mIO3R1KSYB3AyhMtT/mRIJDb5xVJqABT01SoI2cFUFME4F8DdaVjBMIjlmagU018P8irXr1h/jznwSA/c5vWC34Pbbb/cm1LSGYcVhlhOrr9mEzx74NVDSRqPedO+BCFVB8GUQEkK7TXUt6hQkH4iklqzJYR4y6XXE5XsoHgE0uAErVDdAb+R5I6HMldiyUAG6Flw7LkDL8FI6Mo05HqAlASa+bNl/6+tqsM2ogzDxwnnotmPhw4qnTp3qKQKbD2a2VLRv3977toAtqld/geWzf+MPFza7gIW0/lqyDzgGjcHrwLj/+alu1SYusgJAXgXwN0geCizddN5wgrpOpIM6FWBkbtIlkfx9TRcQlYb/PwtDAhAJjT9eW73Biw+MO+NJPz4QDdllyUaOHOnFB7ZWt2Dy5Mk455xzrNNv/Gw+vn/nMXEBGcMzNym//H7T+2seKqR7t9X3jfL3pdz+2n86FJsAcsEHxQAVw9OZL3XUoBCCJJT8YKX6yTdUae2l1kCXxvSbqqqOBPJpHG9Y8fCjb8PI4+9FqrQMhcCVyq5bcNpppxVUTnPFH//4R29tBVt889IdqFm3EjaqD1TDERBjAvXumg1CTaI0MUT9xMZpLn21eRR/adqKynkOsCe4FYJzK/bmtvmVhPMrBGdX9eVX/gW3sjC4lXr5NdEcB1J6/crB+XOK3yHg6wpyBWFw9RbLBaS80odF+dWMIT0EdWVkNY2LktK2WLlwFj5/3qjwrPHkk0/mPsm1NSHM9aTatMOgkx8Hq69XyF42bibFi2S1J3zWDLx9M4LsmZQmew7G1YEJZTMuJ5NWAubOMRaZ9DvGa7a+O9FxK8VOioziNRTTD8JADCpArAPLnpIgZNoVkMsRthl3TcR1g3+Ilu4Ada662mr0+uFB2O2S19B1+11RKA4++GDPf66qqiq4rOaEMN2g9TWbsfKp33mThnTPDtANHArf+tu9s0wqmycWaWQrE4paEWT8aBQCyKQfAc9J3IUxzSIGEndqBgZxP6U7ydRkatmahyaQA8emtDGq8QBRQtI9AxBaEpoEcnkIIuB/11Stw46HXO71GLTvMRCFoLq62lt7wPWht5Zlydq1a+epG1tsWjof3718h08C9NiP/JbG6IPeVzG1saFjUkG0zajzbQDcaLxQH4X1L9li9NRB7v+Rk81OXn47nNSX3AJIbkEWouxXPxZC74P6GXJBmmfdDRBpxHyyqnQ4vU6VL7srUpJc3eR9MLgESrpUCfqMPgQd++yE7z95FYwFr4evw//93//hqquu8r5oNH78eG9lopYK974OGTIE3377LRYsWGCVp3rVEpR06Ioyf7FXUrFKxsnLcxm2rb/cKICX+dracg2qeGAq3psVuOZ84zh8FZUjAbwvG30+FuAIPjXv+8cZCxDLFPOI55F8dst4gFgWhLIgfV1IzAvh+pQ6Q9wwEYGLkjbt8PlzN2PVu7OtPoxhQufOnfHqq69ixIgRLT4+8IMf/MBbc9EWfSsySHXs4f1mUKf7KqtKaVr/vBnLxm7j+2cJgE/LJN8f8pd/XkAmva/NNTbeE62ofB7APo7UojsSIQhkICgCCxVA7bMMCAL8eaCkgfyJMMugIAgSoPKCCA7CoAbkY9R2aYeuePf2adi8+gv5aYTGsGHDvOW4OnYsbHRiU2LdunXo0qWLdXqntC36nfKkNx6DSYbMYBH4gzjlVzV2/Se/mDIvhkldf0wKQvLUhB9Sc/8pNKa287/zJDCV6kcLSkmSQoapwlrfSs4iPSQmxRxEP88cD1D9c6bp+8+3HMI++eFDDA7K1RfqQgWnpO3aTWsw4ri7MO7Mpwpejeijjz7yViM644wzWuzXjFyXJswgKFZbjW+euowzk3ATv0AYP59K9+6q51BH+gnnFVXHS7bGj0YlgIaI5PLctnID5YvLJzDeZG6LZFgivbJ2IDE2QB6Zx6AuEaXmNZMAZBIg8+frCKjlIAQRZFsK1/h3OedfGLD3qQUTwa233ho6sNac4CqZG2+0io952Lz0TWx4fzb3NR7NPbeY8AP5OWsbJ1EFKOeUGknpzDdZX1wjKwAXZwlGJl6Jhl3tVYC0W9nQMq10ftnHo9KbWl+KBJiBBCB1j+bT69UAKCLQTLRi2WHFow/GhPOfR9cddi14fsGhhx7qKYKWNqzYdbHOPvts/PrX9t91XPvKX1C9rGF6NfncQwf+1CnsQnkQX8ygBpL7Zzky6cetL6xRYwBZVFQyQPXrC4oFFBgQRIh4AAxBQSUdNShJSmsTF0BAbIDcp4kTZFG3pQpLHjwbVd99QbyG4TB06FBv2fKyssJGJzY2Bg4ciC++sI+P9Dn932C1WxSSzkJt/c2BPxCKj/f9c3u0vj8TVCmAi5FJ/2+Ye9AU/TuhYgFymqiMK/vbAOEKQMoDejw/mNqKk7IfTBMphhJUgrTfRg3oWg9FFRCStaSsPYZV3InhFX8p+CMmixcvRtu2bXHmmWeirq6wXofGRFj1suqOg4HSdtp7n/2hvIthFak0VkZt/TXlhDR+NAkBZNI3NHxD0IdiOBwTCkxAT3ZQb7wq0eQN7Y2HGg+gjJshHAlA6+fnCU4tWz2niQiMZAANITCGtt0HYNy5z6L/T06BE/BBzSDccsstKC0txTPPPNMiVivu3LkznnjiCev0rLYa3z91ibewKCwaIvlZQtOfz7f28rsCmdR5++DOBSDSZ6qbaoTHmQ3/6FUAD0apAo30km8+X4pcBgDlK7FcNUgSkOsTRAKMIAGZcOQ7kS2HmiKsIwL5nIH7uZ31NVuwzehDsMuF89Bl+4koFJMnT/Yi7v/5z38KLqvYOOSQQ0JNiNry+QJsel8kjTjeP8oWmOWsWbdBRSYdabGHphvZUVG5HMB2plgAuR0wOMg8NgCh4gGmQUJqOofw22Vf3gnw8yHUXDhO5KOugUKYh+z4Xzxe8uDZ2Pzd5yFy0hg6dKgntZv7aML9998fzz33nHX6rkfdhZLOvZVGA0TkPrthckPFQT/yNpN6oBTff0pUAmjKp6JVAUHMp2vl+OMgZJScgHoQ0CmO7OOlpusSSoBKm7s2g0tA35GA+AB/DQHKQL5vMpg3K649hh5zJ4Yee6c67jkkFi9ejJKSEpx11lkFlVNszJkzB3379rVOv/bRs4BsTwrl94eV/vIT18yT4X8U2vqjSRUAPBXgNjEDyMi/3+yR244weyBarwDoSLm5Z8BOCYDoNVD2wSFbdSoP5LkIyvXof8OgDEzI5kiVtsXKBQ/hy3naZeVCYcmSJdhxxx2b5bDijRs3el2btijpMQhdj7gd9bU1pPQXzFrrevLRfc023/rzvQMNRR2KTHp21Gtual12cMM/+YvObQtOlLitMGfUYEyAEgDX+sJCCQhjs8mWnf9jWh8fSovP6AFEBkUg/HHKgFIIFLJ562qrsc2YQzHuoldQPmiXwHxBGDJkiDecuDl+27BDhw546qmnrNPXfbcU6/55eU4J0IqTfs9gUrXa3rB8Av/33EKMH01OAA1fE75TlkHaG2O6aZrjgbLM8HBkg0MACUAgASYZoZQuWwfGtIYM4rxk0JEIGCr1V8pVScH0V7t5PQYfciVGnja74EFEVVVV3rcNf/7znzerZclcVXLQQQeFCgrWLH0D1R9xq26HGolq6/5mXwImv/MHh71GGU2vwyoqy12XCgGDg8jtiK4AYBcUhCLb9e4AldYUHIQi+x1tsE/OJ10RLf+Ja1LSBMAhiLHhQArrPn0dn//jSrD6wlvyp59+2lvTv6SkcWan22Dw4MFYunSpdfryo+9BqkPPwAYmsvSHGCQEcDcy6RMLvc7mQABuHS4AcI0YKVfXDJC3AX2vAJoZCSjHSBJQYwNUGoQlA/Ka9dClkckgVdoWy5+7Cavf/4f3haNCUF5ejvnz53suQnOJD4Sph9OmPbqc8KhPiMEupmrQ0og/GKf7uuo5lpvUPO40PCL4EkBfeiiwuA1ybUGVBPjWUDESKsgWkQRADBsW8kgkgKISAUgyUNPQCYJeCEoRlLTrgsV/mYota1boNIM1RowYgbfffrtZDCt+//33MWrUKOv0bQbtig6TLm1YjMVg/JBGtDLZ2IMDf5G7/WQ0dRCQx2RIUkjY5m8BIY0QIh7AlMRmxoYmJsDEWtHTe7Npmeq/w5RH6jIE4cvny5YDgkyIF2jjAUz8A1P32fzVVq3Fjsfeix2Ovr3gYcWLFi3yhhWfc845qK8vTFUUipEjR+Lxx+3n1tQsfQOb37gnR6PUe0QaP5eafL+5fP5iH7F94aX5OF3vzVqF0VP7Axiba78k6c+3pLIrAEdsY8nVdWwGCcGsBEBIfFBtrs6Xd+SSAblg9Sh9wNRam9Wr9gxWoNt4htIOXdBrt2OQKmuPTcveFYdPhsQbb7yBK664AhMnTvS6DZsC7jPfeeedsXLlSk+V2KBu1X9Q0mc4Up175/apfr+/P5eAJmnqGIAxNkt92aL5uABZSLMFVVdA4xZYxgMoOR6WBGiJz+9T4wLKvyHcAsiugVJn9UEq24YnHeUlMJm2+767JPD5oxdg4xcLgQLiA+4979y5s7ca0ZAhQyKXUygGDRqEzz+3HxnZ6aj74HTo5v228ftBuQKq9L8AwA3IpAvzszg0RwL4BYDHRN86v2UcIASaFLIQDay4JGCKC0DJo/YUIIAITHW02QZxnrAwNfDZQ/VbNuLzh87BljXLo52Ew4gRI7xpx03RW7B27Vp07drVPkObduh8wmPeBCKT3w/N8F4i6r8cmXT/uK+rOcUAGtCwoMFfhJsm9ZNCFywBIaeoQUJCGbmiuVYtIIpLDBvO+dFEXEA/xRdC5Ffx1zXDhnlBmRtHoEkX9AciFmD9Z1G+U9YRg465CwOPvt3rPiwEixYt8mYbnnvuuQWVEwVdunTBrFmz7DPUbEbVvy73r1nv9/PvLfjnokr/4XFeTxbNTwFkUVH5FYBtc625qStQsy0rCJAtrL0SUPMTffyI6BLA7BYAuoi//BDF+IZ6HFLqwqATAYzaKGmD799+CN++ck+AE2GHZ599Fvvtt1+jdhtef/31uOCCC6zTt939ZJTsfIDnBvFBWqMroEr/qcikQ7CPPZozAXQCsB6c/y+4ArCLBxhJgOoeRHgSAO8KBLgEsHAL+NQ6Q7cjA5CEoE8bDaSxqxor9ytV1gHLHzkXVcsCP1wTiPLyci9AF+Y7gIXixBNPxN13322dvv0RdwIdexj9fp0rENeAHx2aLwHAIwGXaq+1jQeAGA8QDwkgpzqU/Jq4ACQiyO/j6hAzEcjHqG21FlYZ8iAabtXE6aRMOlF99UYsf/hM1K5dEXDSYBxyyCGeRG+s+EC/fv3w5ZdfWqdvf9I/wGo3Bxq/5PfHNuBHh+ZNAPBI4EUAP7GV/kUnAeilta1LQKkBJY9N/cg6SNugEfeDt3IFoC6s4vrIW777DF9VnhpLPW677TZvwc9irz8Q9hsDaNMObY9/xIsNUMbewANyzAtjkEm/W5wraEDzJwDwXYOwjgeA6BkwkgD0MQExXTAJIEANwMItIH87KgWY5T8d4S/GQ9cSADOny247pWVY+9aD+P7Ve2Kpz6effup13RUzPvD444/jsMMOs06fGjgBpfvNaBguzM30BO33xzbaz1inYp8gJpRDGyEN8qnyzCpHY6FE+CF4rnRPgNpDIPcSQIrGQ6o35Eh+QG8B5F4DxoT+kdAR/hC9BLZ/tueCkrfhv/qaanQa9QsMPHceSst7h35BZGy//fbe+IFi4he/+AVOOukk6/T1n7+JusX/9n4HGP89jWH8aDEKAJ4KONQlXQBE4A9FUAIQ1UCAEpDLQGg1gEDXQPubUAZUfXT74oKdG8AJXIVcs78dsNoqfHnn1Fjqdd555+Gaa64pWnxg7733xty5c63Tlx5+O1jH7t5vIuj3FTLp7YpSUQIthwDgkcAdAH5NGbHcMwCSBBzBWEwkEDUuIJejTEyKiQh0ZYpEpT7eYj9wlQTMBi9vy4HCqk9fw+p/X13QaMIsnn32Wey7775FiQ9su+223pBhK5R1RMkxM8HqtqhBP6ArMum1sVdQg5ZFAPBIwKXavaKTgL0SMJEAYlIDsCQChCADqq5yuTZwDK06DRbQJUhvq24Yv5/BKSnDmhdvwqaP/l0wEXTr1s37TLjrIsQZH1i/fr3XJWmN7oOQOvQGsLoa/q6N9T+h12hoeQQAjwSWAehnQwK8e2BLAjDIaxMJQHIXUCARyGe1JQPrfZqnT+02EkFAoI/aF9g7ADWWUl+9AasfPRd16wrvNhw1apQ3rDhOhA0KYuBEYJ/zgIZPuB8W9rNecaClBAFljITyovBhNTpQGBQYDPrME+TgoDR8WA4QgnzRxXK0gT6lVGk6cahAG72PCtpBM+wXhmOxBA25K1SGRvs/nLJO6HHUXeh++M0Fr1b83nvveWR84YUXFlQOj7BBQXw+H/j4effXXU1h/GixCgDyUmIQugchKAE1UGhSAojJJUAINYAARUDup+qRKxcKbB607ctg4xaQKoBUCoxMz5M4VSZLlaJq4cPYOP/+gqYdZ/Hcc8958YE40L9/fyxfHmryU18AhcuaCGi5BACPBKYCeASWJAAiJgCog4UQggRgMFQqNkBs6nsj5N9GMoASM8iXT+yU0wQnERBkcpRNyvpKZ/TyMep3Vkk5bdph7RMXoGb5e/aV16Br167esOLtt9++4LJCxhfWesG/JkDLJgB4JOA6Xd5ECW0QkNpHkICQPkRcQD6GiEQAIkag/U2eRz2v7jziOQMSaBDU8BIOVUFGD2hmd7p/1Rux7rFzULfOMhJvQBzxgXfeeQdjx44Nk8VtyKYVdNIIaKkxgDwaBkx4Hcai/0/FBLh9TDja8GIxiD6o9LIJcQEmRBTI2AD/2vO+LF8eFSNgzDzAhy/LPA2Y+i/AFy9oOrDuv4D4A1F/5bfhi0cunLKO6HLknSif8qcwbw+JbHzgoosuilzGmDFj8Mgjj4TJcjiAqyOfMCJavgLIoqJyCoBHEVIJQJ47AHWsAKK4BNCrARDxAWJTOa+cRtv6B/QQ2ByzhUkEMGKDVACabd0HTPTl+hslbbB54UOomp8xVd0aL774Ivbaa69I3YbTp0/HPfeEGt68F4CXQp8oIrYeAkDhJBAmOIhGJoLA8+sIxJAgroevmCkzHIvD6KExfCmdU9oe6584D7VffaCtuy06d+7sTQCKgr59+2LFilAxvj4AVkU6WUhsXQQAmQTowCAAadiwf0QbF6D3Q0sCiIUINLuUOujSFdT6ywkMTb21CtDsM32qjDL8wNiCpDZY9QZseOwc1G/42lBTO0yZMsWT9mHUwJo1a7wBSCHQaEHBlh8DkNGwcorrT+X9UiYuxwQwZSkuqGOyubgAsT/7m4wNgH45NfGBnPcsO+eEvw6uDsJfUMwg7F+Ivn65nkHH5PrLIK9ZubfyL8P9bdsRnY66Cx1/caNyrrCYNWuWN5T4rrvusl62vGvXrnjooYfCnKZLtner2Nj6FEAWUhchlBGDoFt9Mi4QwSVAgFsAfSQ/SBUYduePG1qoYj10XTtu+zFS3U6ZUJUtMr7A5eIPlLRB1dybUPPxc7GMH1i2bBm22247K0Vw9dVX45JLLglT/K8A3FtI/YKw9RIAPBJwmXQNZBkvDw5CcFzAuD8gNgCiQ07nmxeDDIS0RZwfb2PoubQBBzTiPrLhK+cr64gNmSPBNn5nXWcdxowZg4ULF1qlPeGEE3DfffeFKb6oNrp1EwA8EnB9qe8RYPDqPnAKQUcOEIbeRCEChIreO9r02vM2ExipIYLR61IpLb4h5uC5Cls2YdPMowPrb4MZM2Z4rXwQ+vTpg1WrrGN8ru9wZKF106E5vivFAbfKME0CCHQJoqgBRCECRCADfULbw7HASgMYWm5tOTEbvpyvdulr2PLC9Ta1D8SLL76IPffcUzvtOEJQsDeAwiOYBLa+IKAOmXRf15/Kh9yygSXxdWB+BEyYKsSIgUPZ/fkQnh88Mw9YyQWqhIFE+oAWmC4QyJ9ZDNwRieUii/ZnOqk88UfOqZRjvAdcKUwlCL4u/DPhnp6wulJq0G5od9JTSPUZXvBEo7333hu9evXSfkkoQlDwgIIqZEDrUQBZVFTOyI64ouIC0HQVwloNIJwigL77UJfWeDxiOQUhoOUNtdfktwttt32LD8nw1WP+0SzJV69HzeyLwDZ+Q9Y5DEzxgRDxgL8DiMdPkdD6CACm4KBNDIDeD4IgwN1gWyKAPlRoZcTBD9TukfOprGS9ZUqTwetLsJf5CDB8CEPCuWNMSNWgrL77DLVPRh8OzOPiiy/GH/7wB2X/HnvsgVdeeSUo+3wAu8ZSEQmtxwXgkUmv9ddbX6m8BKRLAGlMO5PmsCNfChOX6+RbHKNrANk90LsIjDcGSRsHy3I7MR8wkj/wTNoUAXWWS2AR5lFAdBCEZ8sgPR+/cHHuiL+/+yCUnvAoUmPTxtfJBldffbXXCMybN0/YH9cU5KhonQqAR0XlvQCORwFqgHYLkPMlbRUBdA8kQBmY99o95TAvgrUi0CQMcgZsJX5uP9HigyMcuWUH8kMAZDUAauCX+6ukLeqfvgRYuVhTC3v06NHDcwsGDBjg/V69enVQlqIpgIQA4JHAOABvwYIEABA9BRAIwkwEkByHQslAmzLgSNSEPixYwNYh0Bl8UDm2Uh+yoRtJQVZ0UtnV64HZF9agak2bwMuLDzMBHFuMghMC4FFR+aW/OkuwGpD2QwoeinsotQBrIoBF624RYQhfdgCslYCUWnF7QpRNf9PBZPgQ3ADRwJF3AyAfo9WA1yefST8EINdoNAImAnizGAUnBCCjonKaP/jC2McvG7stEYALFkLjHsjnkmF8aE5QumI+cjriYDhsc0izLoOqHsIavlbu04a/Epn0tkT1LgFwlaH6caBoDy0hAB38gUMI5RYUSgRqGgSQAWwfYqQeAzsoxhuDe6BdjEVq7UnD5gOO1oafDwwQxn8EMumHA6r8MoAfB6SJgssAXFmEcj0kBGBCReURAB4E1VJHIAIqWCiksSADWBACmtmDtXUVTEYPi9Ye1oZPxADoVn+FP4DMFj0BvAOgX4g8Jqzy1wYoGprTe9J8UVGZY3fFgJUvApuIAMFxAC4NiMh/VEKAco54ES4e4OfRTAXmf+mMXk5B+/EIYfjyUYxHJh3Vx881HAWiB4DALoJCkBCALSoqu/EPwxwMhB0RQPMdQnmPIfIfByE0BoJX+pEMHhZGz2UgFYHGuBl3QGr13X8yyKSPj3KNBO5z35yIdtY9O4mtmGh+b0pzh6VboBw3xQEARRWAeDiOmMiaEIRUTTgd2CzwaWMGQQ1Ua4/CDB+GIF8cWOFP6Am6+cyX/cWqh4KEAKKiovJ+v29WHe5jIgLuf2RrD1syUBIS6UxbxYPO0JUtjcEjitEb0xgNH15rm0kXvbUF8AqA3fzf2VG42WWFXi9SENGIhAAKRUWl+1B/RBIB9DECGFUBNGSgpiWPhIr4F/oKBEl7eQdl7hpXwJAnqLWHneFPQCa9gLyAVoKEAOKCQgSQgoU2qgBmMgBNCDA8SCp/0SA17yaHgPD47Y0e8mpetOHriCEx/DwSAogbkYgAVmQAK0IgUwWCTuuQLXyYiD/h6ee3CH+gUKOXz5kYvhkJARQLFZWXAbgiu0m7B4WRAVEiV64O8cUFbKlBNXYEuAKU70/noWS+dLovAYxBJl345P6tEAkBFBsVlUcB+Ft2U6cKaOkPTcxATY+AvPKuOB+8HMWnUugOKebKVK0QbPRKOuaPzEsjk/7K7ipaJxICaCxUVPYFUAlgD7FxV1WBlfRXFIIulYp4+wZ0Il+Xkik7zZ1+2b200RNpj0Ym/Xe7uidICKApIKkC6MgAqpsgpldSE6SgKbdIMNKBYuwI9v2DjZ753WtHJq19eCQE0NSoqPwrgGOym/qIAC/f9SE7+ZeujKKBNHLuoEYpyAaPYKNf5kv812KodatFQgDNCRIZQBcYVA7q4wFKnsZgAOUXlUpp2oNcgazRH4VM+tW4atvakRBAc0VFZQWA3/szy4gG3NDeWxJDELJ5w3T7yRDMWHX/dSl53OdNic2kvyygGgk0SAigJaCicjsAx1HzwnWtu/bBxhQf0Jqr1S6tSnA35wF4AJl0qI/qJ4iGhABaKvIKob98yBQytD9ihyB/Pzgd7gfwm6SFbxokBLA1oaJyur9+3PSgpHE/eAs3YTkAt1W/G5n08phPnyAiEgJoLWggh34ANme/jBQz5vryvRTAHYmRtwz8fwAAAP//CE+fQFsXdUUAAAAASUVORK5CYII=;" parent="1" vertex="1">
                    <mxGeometry x="280" y="445" width="30.69" height="30.69" as="geometry"/>
                </mxCell>
            </root>
        </mxGraphModel>
    </diagram>
</mxfile>